<?xml version="1.0" encoding="UTF-8" standalone="no"?><svg xmlns="http://www.w3.org/2000/svg" xmlns:xlink="http://www.w3.org/1999/xlink" contentStyleType="text/css" height="547px" preserveAspectRatio="none" style="width:718px;height:547px;background:#FFFFFF;" version="1.1" viewBox="0 0 718 547" width="718px" zoomAndPan="magnify"><defs/><g><!--MD5=[5ee9d121a7921493ed90147406c3bd42]
cluster src.test.java--><g id="cluster_src.test.java"><rect fill="none" height="534" rx="2.5" ry="2.5" style="stroke:#181818;stroke-width:1.0;" width="705" x="7" y="7"/><text fill="#000000" font-family="sans-serif" font-size="14" font-weight="bold" lengthAdjust="spacing" textLength="86" x="316.5" y="23.5332">src.test.java</text></g><!--MD5=[be48e98a4ad7f5f2a1ba2465e5010d2c]
cluster helper--><g id="cluster_helper"><polygon fill="none" points="31,61,41,51,688,51,688,252,678,262,31,262,31,61" style="stroke:#181818;stroke-width:1.0;"/><line style="stroke:#181818;stroke-width:1.0;" x1="678" x2="688" y1="61" y2="51"/><line style="stroke:#181818;stroke-width:1.0;" x1="31" x2="678" y1="61" y2="61"/><line style="stroke:#181818;stroke-width:1.0;" x1="678" x2="678" y1="61" y2="262"/><text fill="#000000" font-family="sans-serif" font-size="14" font-weight="bold" lengthAdjust="spacing" textLength="46" x="332.5" y="78.5332">helper</text></g><!--MD5=[52a05effe668272d5671c3f0d259ac82]
cluster tests--><g id="cluster_tests"><polygon fill="none" points="116,296,126,286,678,286,678,507,668,517,116,517,116,296" style="stroke:#181818;stroke-width:1.0;"/><line style="stroke:#181818;stroke-width:1.0;" x1="668" x2="678" y1="296" y2="286"/><line style="stroke:#181818;stroke-width:1.0;" x1="116" x2="668" y1="296" y2="296"/><line style="stroke:#181818;stroke-width:1.0;" x1="668" x2="668" y1="296" y2="517"/><text fill="#000000" font-family="sans-serif" font-size="14" font-weight="bold" lengthAdjust="spacing" textLength="35" x="375.5" y="313.5332">tests</text></g><!--MD5=[4a1ba3d21b33ac10642cea05bfb06112]
cluster theInternet--><g id="cluster_theInternet"><polygon fill="none" points="140,345,150,335,654,335,654,483,644,493,140,493,140,345" style="stroke:#181818;stroke-width:1.0;"/><line style="stroke:#181818;stroke-width:1.0;" x1="644" x2="654" y1="345" y2="335"/><line style="stroke:#181818;stroke-width:1.0;" x1="140" x2="644" y1="345" y2="345"/><line style="stroke:#181818;stroke-width:1.0;" x1="644" x2="644" y1="345" y2="493"/><text fill="#000000" font-family="sans-serif" font-size="14" font-weight="bold" lengthAdjust="spacing" textLength="79" x="353.5" y="362.5332">theInternet</text></g><!--MD5=[ae336da5efe52b168083e063e86251c2]
class Base--><g id="elem_Base"><rect codeLine="6" fill="#F1F1F1" height="153.6563" id="Base" rx="2.5" ry="2.5" style="stroke:#181818;stroke-width:0.5;" width="229" x="442.5" y="92"/><ellipse cx="536.75" cy="108" fill="#ADD1B2" rx="11" ry="11" style="stroke:#181818;stroke-width:1.0;"/><path d="M539.5156,103.875 Q539.6719,103.6563 539.8594,103.5469 Q540.0469,103.4375 540.2656,103.4375 Q540.6406,103.4375 540.875,103.7031 Q541.1094,103.9531 541.1094,104.5625 L541.1094,106.0156 Q541.1094,106.625 540.875,106.8906 Q540.6406,107.1563 540.2656,107.1563 Q539.9219,107.1563 539.7188,106.9531 Q539.5156,106.7656 539.4063,106.25 Q539.3594,105.8906 539.1719,105.7031 Q538.8438,105.3281 538.2344,105.1094 Q537.625,104.8906 537,104.8906 Q536.2344,104.8906 535.5938,105.2188 Q534.9688,105.5469 534.4688,106.2969 Q533.9844,107.0469 533.9844,108.0781 L533.9844,109.1719 Q533.9844,110.4063 534.875,111.2344 Q535.7656,112.0469 537.3594,112.0469 Q538.2969,112.0469 538.9531,111.7969 Q539.3438,111.6406 539.7656,111.2031 Q540.0313,110.9375 540.1719,110.8594 Q540.3281,110.7813 540.5313,110.7813 Q540.8594,110.7813 541.1094,111.0469 Q541.375,111.2969 541.375,111.6406 Q541.375,111.9844 541.0313,112.3906 Q540.5313,112.9688 539.7344,113.2969 Q538.6563,113.75 537.3594,113.75 Q535.8438,113.75 534.6406,113.125 Q533.6563,112.625 532.9688,111.5625 Q532.2813,110.4844 532.2813,109.2031 L532.2813,108.0469 Q532.2813,106.7188 532.8906,105.5781 Q533.5156,104.4219 534.6094,103.8125 Q535.7031,103.1875 536.9375,103.1875 Q537.6719,103.1875 538.3125,103.3594 Q538.9688,103.5156 539.5156,103.875 Z " fill="#000000"/><text fill="#000000" font-family="sans-serif" font-size="14" lengthAdjust="spacing" textLength="32" x="557.25" y="113.7285">Base</text><line style="stroke:#181818;stroke-width:0.5;" x1="443.5" x2="670.5" y1="124" y2="124"/><ellipse cx="453.5" cy="138.3047" fill="none" rx="3" ry="3" style="stroke:#038048;stroke-width:1.0;"/><text fill="#000000" font-family="sans-serif" font-size="14" lengthAdjust="spacing" text-decoration="underline" textLength="109" x="462.5" y="142.5332">Logger LOGGER</text><ellipse cx="453.5" cy="155.9141" fill="none" rx="3" ry="3" style="stroke:#038048;stroke-width:1.0;"/><text fill="#000000" font-family="sans-serif" font-size="14" lengthAdjust="spacing" text-decoration="underline" textLength="200" x="462.5" y="160.1426">ReportAllureHelper allureHelper</text><polygon fill="none" points="453.5,168.5234,457.5,172.5234,453.5,176.5234,449.5,172.5234" style="stroke:#B38D22;stroke-width:1.0;"/><text fill="#000000" font-family="sans-serif" font-size="14" lengthAdjust="spacing" text-decoration="underline" textLength="203" x="462.5" y="177.752">ThreadLocal&lt;WebDriver&gt; driver</text><ellipse cx="453.5" cy="191.1328" fill="none" rx="3" ry="3" style="stroke:#038048;stroke-width:1.0;"/><text fill="#000000" font-family="sans-serif" font-size="14" lengthAdjust="spacing" textLength="199" x="462.5" y="195.3613">ChromeOptions chromeOptions</text><line style="stroke:#181818;stroke-width:0.5;" x1="443.5" x2="670.5" y1="202.4375" y2="202.4375"/><ellipse cx="453.5" cy="216.7422" fill="#84BE84" rx="3" ry="3" style="stroke:#038048;stroke-width:1.0;"/><text fill="#000000" font-family="sans-serif" font-size="14" lengthAdjust="spacing" textLength="203" x="462.5" y="220.9707">void setup(ITestContext context)</text><ellipse cx="453.5" cy="234.3516" fill="#84BE84" rx="3" ry="3" style="stroke:#038048;stroke-width:1.0;"/><text fill="#000000" font-family="sans-serif" font-size="14" lengthAdjust="spacing" textLength="115" x="462.5" y="238.5801">void sleep(int sec)</text></g><!--MD5=[c4c6d706d5740cd5745d638f463d763b]
class BeforeMethod--><g id="elem_BeforeMethod"><rect codeLine="15" fill="#F1F1F1" height="65.6094" id="BeforeMethod" rx="2.5" ry="2.5" style="stroke:#181818;stroke-width:0.5;" width="215" x="192.5" y="136"/><ellipse cx="251.25" cy="152" fill="#E3664A" rx="11" ry="11" style="stroke:#181818;stroke-width:1.0;"/><path d="M253.5938,149.5781 L253.5938,149.0625 Q253.5938,148.2344 253.1094,147.7344 Q252.6406,147.2344 251.8906,147.2344 Q251.2969,147.2344 250.7656,147.6406 Q250.2344,148.0313 249.9688,148.6563 Q249.5,149.75 249.5,150.8594 L249.5,153.375 Q249.5,155.2969 250.3594,156.4219 Q250.9219,157.1719 251.9375,157.1719 Q252.4844,157.1719 252.9219,157.0313 Q253.375,156.8906 253.625,156.6406 Q253.875,156.3906 254.0938,156.3906 Q254.3594,156.3906 254.5469,156.5781 Q254.7344,156.7656 254.7344,157.0313 Q254.7344,157.4531 254.1563,157.8438 Q253.3281,158.4063 251.8906,158.4063 Q250.7969,158.4063 250.0781,157.9063 Q249.1563,157.2656 248.7031,156 Q248.25,154.7344 248.25,153.5 L248.25,150.7656 Q248.25,148.7813 249.2344,147.3906 Q250.2188,145.9844 251.8594,145.9844 Q252.6094,145.9844 253.25,146.2969 Q253.9063,146.5938 254.375,147.3594 Q254.8438,148.125 254.8438,149.0625 L254.8438,153.5938 Q255.2031,153.7656 255.2031,154.1563 Q255.2031,154.4375 255,154.625 Q254.8125,154.7969 254.3438,154.7969 L253.5938,154.7969 L253.5938,154.75 Q253.2031,154.8125 253.0156,154.8125 Q252.0156,154.8125 251.2656,154.0781 Q250.5313,153.3281 250.5313,152.3281 Q250.5313,151.2656 251.3438,150.4688 Q252.1719,149.6719 253.5938,149.5781 Z M253.5938,150.8594 Q252.7031,150.9531 252.2344,151.375 Q251.7813,151.7969 251.7813,152.3438 Q251.7813,152.8281 252.1563,153.1719 Q252.5469,153.5156 253.1875,153.5156 Q253.3125,153.5156 253.5938,153.5 L253.5938,150.8594 Z " fill="#000000"/><text fill="#000000" font-family="sans-serif" font-size="14" lengthAdjust="spacing" textLength="89" x="271.75" y="157.7285">BeforeMethod</text><line style="stroke:#181818;stroke-width:0.5;" x1="193.5" x2="406.5" y1="168" y2="168"/><line style="stroke:#181818;stroke-width:0.5;" x1="193.5" x2="406.5" y1="176" y2="176"/><text fill="#000000" font-family="sans-serif" font-size="14" lengthAdjust="spacing" textLength="203" x="198.5" y="194.5332">void setup(ITestContext context)</text></g><!--MD5=[bf6fae6336071de6726384941a763dfb]
class AfterMethod--><g id="elem_AfterMethod"><rect codeLine="18" fill="#F1F1F1" height="65.6094" id="AfterMethod" rx="2.5" ry="2.5" style="stroke:#181818;stroke-width:0.5;" width="110" x="47" y="136"/><ellipse cx="62.45" cy="152" fill="#E3664A" rx="11" ry="11" style="stroke:#181818;stroke-width:1.0;"/><path d="M64.7938,149.5781 L64.7938,149.0625 Q64.7938,148.2344 64.3094,147.7344 Q63.8406,147.2344 63.0906,147.2344 Q62.4969,147.2344 61.9656,147.6406 Q61.4344,148.0313 61.1688,148.6563 Q60.7,149.75 60.7,150.8594 L60.7,153.375 Q60.7,155.2969 61.5594,156.4219 Q62.1219,157.1719 63.1375,157.1719 Q63.6844,157.1719 64.1219,157.0313 Q64.575,156.8906 64.825,156.6406 Q65.075,156.3906 65.2938,156.3906 Q65.5594,156.3906 65.7469,156.5781 Q65.9344,156.7656 65.9344,157.0313 Q65.9344,157.4531 65.3563,157.8438 Q64.5281,158.4063 63.0906,158.4063 Q61.9969,158.4063 61.2781,157.9063 Q60.3563,157.2656 59.9031,156 Q59.45,154.7344 59.45,153.5 L59.45,150.7656 Q59.45,148.7813 60.4344,147.3906 Q61.4188,145.9844 63.0594,145.9844 Q63.8094,145.9844 64.45,146.2969 Q65.1063,146.5938 65.575,147.3594 Q66.0438,148.125 66.0438,149.0625 L66.0438,153.5938 Q66.4031,153.7656 66.4031,154.1563 Q66.4031,154.4375 66.2,154.625 Q66.0125,154.7969 65.5438,154.7969 L64.7938,154.7969 L64.7938,154.75 Q64.4031,154.8125 64.2156,154.8125 Q63.2156,154.8125 62.4656,154.0781 Q61.7313,153.3281 61.7313,152.3281 Q61.7313,151.2656 62.5438,150.4688 Q63.3719,149.6719 64.7938,149.5781 Z M64.7938,150.8594 Q63.9031,150.9531 63.4344,151.375 Q62.9813,151.7969 62.9813,152.3438 Q62.9813,152.8281 63.3563,153.1719 Q63.7469,153.5156 64.3875,153.5156 Q64.5125,153.5156 64.7938,153.5 L64.7938,150.8594 Z " fill="#000000"/><text fill="#000000" font-family="sans-serif" font-size="14" lengthAdjust="spacing" textLength="77" x="76.55" y="157.7285">AfterMethod</text><line style="stroke:#181818;stroke-width:0.5;" x1="48" x2="156" y1="168" y2="168"/><line style="stroke:#181818;stroke-width:0.5;" x1="48" x2="156" y1="176" y2="176"/><text fill="#000000" font-family="sans-serif" font-size="14" lengthAdjust="spacing" textLength="98" x="53" y="194.5332">void teardown()</text></g><!--MD5=[af7e625d7683394aea459c9348d939cc]
class TestLoginPage--><g id="elem_TestLoginPage"><rect codeLine="25" fill="#F1F1F1" height="65.6094" id="TestLoginPage" rx="2.5" ry="2.5" style="stroke:#181818;stroke-width:0.5;" width="161" x="476.5" y="393.5"/><ellipse cx="506.35" cy="409.5" fill="#ADD1B2" rx="11" ry="11" style="stroke:#181818;stroke-width:1.0;"/><path d="M509.1156,405.375 Q509.2719,405.1563 509.4594,405.0469 Q509.6469,404.9375 509.8656,404.9375 Q510.2406,404.9375 510.475,405.2031 Q510.7094,405.4531 510.7094,406.0625 L510.7094,407.5156 Q510.7094,408.125 510.475,408.3906 Q510.2406,408.6563 509.8656,408.6563 Q509.5219,408.6563 509.3188,408.4531 Q509.1156,408.2656 509.0063,407.75 Q508.9594,407.3906 508.7719,407.2031 Q508.4438,406.8281 507.8344,406.6094 Q507.225,406.3906 506.6,406.3906 Q505.8344,406.3906 505.1938,406.7188 Q504.5688,407.0469 504.0688,407.7969 Q503.5844,408.5469 503.5844,409.5781 L503.5844,410.6719 Q503.5844,411.9063 504.475,412.7344 Q505.3656,413.5469 506.9594,413.5469 Q507.8969,413.5469 508.5531,413.2969 Q508.9438,413.1406 509.3656,412.7031 Q509.6313,412.4375 509.7719,412.3594 Q509.9281,412.2813 510.1313,412.2813 Q510.4594,412.2813 510.7094,412.5469 Q510.975,412.7969 510.975,413.1406 Q510.975,413.4844 510.6313,413.8906 Q510.1313,414.4688 509.3344,414.7969 Q508.2563,415.25 506.9594,415.25 Q505.4438,415.25 504.2406,414.625 Q503.2563,414.125 502.5688,413.0625 Q501.8813,411.9844 501.8813,410.7031 L501.8813,409.5469 Q501.8813,408.2188 502.4906,407.0781 Q503.1156,405.9219 504.2094,405.3125 Q505.3031,404.6875 506.5375,404.6875 Q507.2719,404.6875 507.9125,404.8594 Q508.5688,405.0156 509.1156,405.375 Z " fill="#000000"/><text fill="#000000" font-family="sans-serif" font-size="14" lengthAdjust="spacing" textLength="96" x="523.65" y="415.2285">TestLoginPage</text><line style="stroke:#181818;stroke-width:0.5;" x1="477.5" x2="636.5" y1="425.5" y2="425.5"/><rect fill="none" height="6" style="stroke:#C82930;stroke-width:1.0;" width="6" x="484.5" y="436.8047"/><text fill="#000000" font-family="sans-serif" font-size="14" lengthAdjust="spacing" textLength="135" x="496.5" y="444.0332">LoginPage loginPage</text><line style="stroke:#181818;stroke-width:0.5;" x1="477.5" x2="636.5" y1="451.1094" y2="451.1094"/></g><!--MD5=[df38be88ccee13e832d6fafd6288a4ca]
class Test--><g id="elem_Test"><rect codeLine="28" fill="#F1F1F1" height="100.8281" id="Test" rx="2.5" ry="2.5" style="stroke:#181818;stroke-width:0.5;" width="134" x="307" y="376"/><ellipse cx="355.75" cy="392" fill="#E3664A" rx="11" ry="11" style="stroke:#181818;stroke-width:1.0;"/><path d="M358.0938,389.5781 L358.0938,389.0625 Q358.0938,388.2344 357.6094,387.7344 Q357.1406,387.2344 356.3906,387.2344 Q355.7969,387.2344 355.2656,387.6406 Q354.7344,388.0313 354.4688,388.6563 Q354,389.75 354,390.8594 L354,393.375 Q354,395.2969 354.8594,396.4219 Q355.4219,397.1719 356.4375,397.1719 Q356.9844,397.1719 357.4219,397.0313 Q357.875,396.8906 358.125,396.6406 Q358.375,396.3906 358.5938,396.3906 Q358.8594,396.3906 359.0469,396.5781 Q359.2344,396.7656 359.2344,397.0313 Q359.2344,397.4531 358.6563,397.8438 Q357.8281,398.4063 356.3906,398.4063 Q355.2969,398.4063 354.5781,397.9063 Q353.6563,397.2656 353.2031,396 Q352.75,394.7344 352.75,393.5 L352.75,390.7656 Q352.75,388.7813 353.7344,387.3906 Q354.7188,385.9844 356.3594,385.9844 Q357.1094,385.9844 357.75,386.2969 Q358.4063,386.5938 358.875,387.3594 Q359.3438,388.125 359.3438,389.0625 L359.3438,393.5938 Q359.7031,393.7656 359.7031,394.1563 Q359.7031,394.4375 359.5,394.625 Q359.3125,394.7969 358.8438,394.7969 L358.0938,394.7969 L358.0938,394.75 Q357.7031,394.8125 357.5156,394.8125 Q356.5156,394.8125 355.7656,394.0781 Q355.0313,393.3281 355.0313,392.3281 Q355.0313,391.2656 355.8438,390.4688 Q356.6719,389.6719 358.0938,389.5781 Z M358.0938,390.8594 Q357.2031,390.9531 356.7344,391.375 Q356.2813,391.7969 356.2813,392.3438 Q356.2813,392.8281 356.6563,393.1719 Q357.0469,393.5156 357.6875,393.5156 Q357.8125,393.5156 358.0938,393.5 L358.0938,390.8594 Z " fill="#000000"/><text fill="#000000" font-family="sans-serif" font-size="14" lengthAdjust="spacing" textLength="28" x="376.25" y="397.7285">Test</text><line style="stroke:#181818;stroke-width:0.5;" x1="308" x2="440" y1="408" y2="408"/><line style="stroke:#181818;stroke-width:0.5;" x1="308" x2="440" y1="416" y2="416"/><text fill="#000000" font-family="sans-serif" font-size="14" lengthAdjust="spacing" textLength="104" x="313" y="434.5332">void validLogin()</text><text fill="#000000" font-family="sans-serif" font-size="14" lengthAdjust="spacing" textLength="117" x="313" y="452.1426">void inValidLogin()</text><text fill="#000000" font-family="sans-serif" font-size="14" lengthAdjust="spacing" textLength="122" x="313" y="469.752">void unstableTest()</text></g><!--MD5=[41b3e0deefa0fbdaaef97f1db5961522]
class Severity--><g id="elem_Severity"><rect codeLine="33" fill="#F1F1F1" height="65.6094" id="Severity" rx="2.5" ry="2.5" style="stroke:#181818;stroke-width:0.5;" width="116" x="156" y="393.5"/><ellipse cx="185.85" cy="409.5" fill="#E3664A" rx="11" ry="11" style="stroke:#181818;stroke-width:1.0;"/><path d="M188.1938,407.0781 L188.1938,406.5625 Q188.1938,405.7344 187.7094,405.2344 Q187.2406,404.7344 186.4906,404.7344 Q185.8969,404.7344 185.3656,405.1406 Q184.8344,405.5313 184.5688,406.1563 Q184.1,407.25 184.1,408.3594 L184.1,410.875 Q184.1,412.7969 184.9594,413.9219 Q185.5219,414.6719 186.5375,414.6719 Q187.0844,414.6719 187.5219,414.5313 Q187.975,414.3906 188.225,414.1406 Q188.475,413.8906 188.6938,413.8906 Q188.9594,413.8906 189.1469,414.0781 Q189.3344,414.2656 189.3344,414.5313 Q189.3344,414.9531 188.7563,415.3438 Q187.9281,415.9063 186.4906,415.9063 Q185.3969,415.9063 184.6781,415.4063 Q183.7563,414.7656 183.3031,413.5 Q182.85,412.2344 182.85,411 L182.85,408.2656 Q182.85,406.2813 183.8344,404.8906 Q184.8188,403.4844 186.4594,403.4844 Q187.2094,403.4844 187.85,403.7969 Q188.5063,404.0938 188.975,404.8594 Q189.4438,405.625 189.4438,406.5625 L189.4438,411.0938 Q189.8031,411.2656 189.8031,411.6563 Q189.8031,411.9375 189.6,412.125 Q189.4125,412.2969 188.9438,412.2969 L188.1938,412.2969 L188.1938,412.25 Q187.8031,412.3125 187.6156,412.3125 Q186.6156,412.3125 185.8656,411.5781 Q185.1313,410.8281 185.1313,409.8281 Q185.1313,408.7656 185.9438,407.9688 Q186.7719,407.1719 188.1938,407.0781 Z M188.1938,408.3594 Q187.3031,408.4531 186.8344,408.875 Q186.3813,409.2969 186.3813,409.8438 Q186.3813,410.3281 186.7563,410.6719 Q187.1469,411.0156 187.7875,411.0156 Q187.9125,411.0156 188.1938,411 L188.1938,408.3594 Z " fill="#000000"/><text fill="#000000" font-family="sans-serif" font-size="14" lengthAdjust="spacing" textLength="51" x="203.15" y="415.2285">Severity</text><line style="stroke:#181818;stroke-width:0.5;" x1="157" x2="271" y1="425.5" y2="425.5"/><line style="stroke:#181818;stroke-width:0.5;" x1="157" x2="271" y1="433.5" y2="433.5"/><text fill="#000000" font-family="sans-serif" font-size="14" lengthAdjust="spacing" textLength="104" x="162" y="452.0332">void validLogin()</text></g><!--MD5=[285b5178ed2196a17b94641df0e2d559]
reverse link Base to TestLoginPage--><g id="link_Base_TestLoginPage"><path d="M557,266.44 C557,311.27 557,361.59 557,393.39 " fill="none" id="Base-backto-TestLoginPage" style="stroke:#181818;stroke-width:1.0;"/><polygon fill="none" points="550,266.31,557,246.31,564,266.31,550,266.31" style="stroke:#181818;stroke-width:1.0;"/></g><!--MD5=[823c963eaf7bc612255a7702128b08cb]
@startuml Demo

package src.test.java <<Rectangle>> {

package helper <<Node>> {

class Base {
  + {static} Logger LOGGER
  + {static} ReportAllureHelper allureHelper
  # {static} ThreadLocal<WebDriver> driver
  + ChromeOptions chromeOptions

  + void setup(ITestContext context)
  + void sleep(int sec)
}
annotation BeforeMethod {
  void setup(ITestContext context)
}
annotation AfterMethod {
  void teardown()
}
}

package tests <<Node>> {
  package theInternet <<Node>> {
  class TestLoginPage extends Base {
    - LoginPage loginPage
  }
annotation Test {
  void validLogin()
  void inValidLogin()
  void unstableTest()
}
annotation Severity {
  void validLogin()
}
}
}

@enduml

PlantUML version 1.2022.7(Mon Aug 22 22:31:30 IST 2022)
(GPL source distribution)
Java Runtime: Java(TM) SE Runtime Environment
JVM: Java HotSpot(TM) 64-Bit Server VM
Default Encoding: UTF-8
Language: en
Country: US
--></g></svg>