<?xml version="1.0" encoding="UTF-8" standalone="no"?><svg xmlns="http://www.w3.org/2000/svg" xmlns:xlink="http://www.w3.org/1999/xlink" contentStyleType="text/css" height="547px" preserveAspectRatio="none" style="width:718px;height:547px;background:#FFFFFF;" version="1.1" viewBox="0 0 718 547" width="718px" zoomAndPan="magnify"><defs/><g><!--MD5=[5ee9d121a7921493ed90147406c3bd42]
cluster src.test.java--><g id="cluster_src.test.java"><path d="M8.5,6 L95.5,6 A3.75,3.75 0 0 1 98,8.5 L105,29.6094 L708.5,29.6094 A2.5,2.5 0 0 1 711,32.1094 L711,537.5 A2.5,2.5 0 0 1 708.5,540 L8.5,540 A2.5,2.5 0 0 1 6,537.5 L6,8.5 A2.5,2.5 0 0 1 8.5,6 " fill="none" style="stroke:#000000;stroke-width:1.5;"/><line style="stroke:#000000;stroke-width:1.5;" x1="6" x2="105" y1="29.6094" y2="29.6094"/><text fill="#000000" font-family="sans-serif" font-size="14" font-weight="bold" lengthAdjust="spacing" textLength="86" x="10" y="22.5332">src.test.java</text></g><!--MD5=[be48e98a4ad7f5f2a1ba2465e5010d2c]
cluster helper--><g id="cluster_helper"><polygon fill="none" points="30,60,40,50,687,50,687,251,677,261,30,261,30,60" style="stroke:#181818;stroke-width:1.0;"/><line style="stroke:#181818;stroke-width:1.0;" x1="677" x2="687" y1="60" y2="50"/><line style="stroke:#181818;stroke-width:1.0;" x1="30" x2="677" y1="60" y2="60"/><line style="stroke:#181818;stroke-width:1.0;" x1="677" x2="677" y1="60" y2="261"/><text fill="#000000" font-family="sans-serif" font-size="14" font-weight="bold" lengthAdjust="spacing" textLength="46" x="331.5" y="77.5332">helper</text></g><!--MD5=[52a05effe668272d5671c3f0d259ac82]
cluster tests--><g id="cluster_tests"><polygon fill="none" points="115,295,125,285,677,285,677,506,667,516,115,516,115,295" style="stroke:#181818;stroke-width:1.0;"/><line style="stroke:#181818;stroke-width:1.0;" x1="667" x2="677" y1="295" y2="285"/><line style="stroke:#181818;stroke-width:1.0;" x1="115" x2="667" y1="295" y2="295"/><line style="stroke:#181818;stroke-width:1.0;" x1="667" x2="667" y1="295" y2="516"/><text fill="#000000" font-family="sans-serif" font-size="14" font-weight="bold" lengthAdjust="spacing" textLength="35" x="374.5" y="312.5332">tests</text></g><!--MD5=[4a1ba3d21b33ac10642cea05bfb06112]
cluster theInternet--><g id="cluster_theInternet"><polygon fill="none" points="139,344,149,334,653,334,653,482,643,492,139,492,139,344" style="stroke:#181818;stroke-width:1.0;"/><line style="stroke:#181818;stroke-width:1.0;" x1="643" x2="653" y1="344" y2="334"/><line style="stroke:#181818;stroke-width:1.0;" x1="139" x2="643" y1="344" y2="344"/><line style="stroke:#181818;stroke-width:1.0;" x1="643" x2="643" y1="344" y2="492"/><text fill="#000000" font-family="sans-serif" font-size="14" font-weight="bold" lengthAdjust="spacing" textLength="79" x="352.5" y="361.5332">theInternet</text></g><!--MD5=[ae336da5efe52b168083e063e86251c2]
class Base--><g id="elem_Base"><rect codeLine="6" fill="#F1F1F1" height="153.6563" id="Base" rx="2.5" ry="2.5" style="stroke:#181818;stroke-width:0.5;" width="229" x="441.5" y="91"/><ellipse cx="535.75" cy="107" fill="#ADD1B2" rx="11" ry="11" style="stroke:#181818;stroke-width:1.0;"/><path d="M538.5156,102.875 Q538.6719,102.6563 538.8594,102.5469 Q539.0469,102.4375 539.2656,102.4375 Q539.6406,102.4375 539.875,102.7031 Q540.1094,102.9531 540.1094,103.5625 L540.1094,105.0156 Q540.1094,105.625 539.875,105.8906 Q539.6406,106.1563 539.2656,106.1563 Q538.9219,106.1563 538.7188,105.9531 Q538.5156,105.7656 538.4063,105.25 Q538.3594,104.8906 538.1719,104.7031 Q537.8438,104.3281 537.2344,104.1094 Q536.625,103.8906 536,103.8906 Q535.2344,103.8906 534.5938,104.2188 Q533.9688,104.5469 533.4688,105.2969 Q532.9844,106.0469 532.9844,107.0781 L532.9844,108.1719 Q532.9844,109.4063 533.875,110.2344 Q534.7656,111.0469 536.3594,111.0469 Q537.2969,111.0469 537.9531,110.7969 Q538.3438,110.6406 538.7656,110.2031 Q539.0313,109.9375 539.1719,109.8594 Q539.3281,109.7813 539.5313,109.7813 Q539.8594,109.7813 540.1094,110.0469 Q540.375,110.2969 540.375,110.6406 Q540.375,110.9844 540.0313,111.3906 Q539.5313,111.9688 538.7344,112.2969 Q537.6563,112.75 536.3594,112.75 Q534.8438,112.75 533.6406,112.125 Q532.6563,111.625 531.9688,110.5625 Q531.2813,109.4844 531.2813,108.2031 L531.2813,107.0469 Q531.2813,105.7188 531.8906,104.5781 Q532.5156,103.4219 533.6094,102.8125 Q534.7031,102.1875 535.9375,102.1875 Q536.6719,102.1875 537.3125,102.3594 Q537.9688,102.5156 538.5156,102.875 Z " fill="#000000"/><text fill="#000000" font-family="sans-serif" font-size="14" lengthAdjust="spacing" textLength="32" x="556.25" y="112.7285">Base</text><line style="stroke:#181818;stroke-width:0.5;" x1="442.5" x2="669.5" y1="123" y2="123"/><ellipse cx="452.5" cy="137.3047" fill="none" rx="3" ry="3" style="stroke:#038048;stroke-width:1.0;"/><text fill="#000000" font-family="sans-serif" font-size="14" lengthAdjust="spacing" text-decoration="underline" textLength="109" x="461.5" y="141.5332">Logger LOGGER</text><ellipse cx="452.5" cy="154.9141" fill="none" rx="3" ry="3" style="stroke:#038048;stroke-width:1.0;"/><text fill="#000000" font-family="sans-serif" font-size="14" lengthAdjust="spacing" text-decoration="underline" textLength="200" x="461.5" y="159.1426">ReportAllureHelper allureHelper</text><polygon fill="none" points="452.5,167.5234,456.5,171.5234,452.5,175.5234,448.5,171.5234" style="stroke:#B38D22;stroke-width:1.0;"/><text fill="#000000" font-family="sans-serif" font-size="14" lengthAdjust="spacing" text-decoration="underline" textLength="203" x="461.5" y="176.752">ThreadLocal&lt;WebDriver&gt; driver</text><ellipse cx="452.5" cy="190.1328" fill="none" rx="3" ry="3" style="stroke:#038048;stroke-width:1.0;"/><text fill="#000000" font-family="sans-serif" font-size="14" lengthAdjust="spacing" textLength="199" x="461.5" y="194.3613">ChromeOptions chromeOptions</text><line style="stroke:#181818;stroke-width:0.5;" x1="442.5" x2="669.5" y1="201.4375" y2="201.4375"/><ellipse cx="452.5" cy="215.7422" fill="#84BE84" rx="3" ry="3" style="stroke:#038048;stroke-width:1.0;"/><text fill="#000000" font-family="sans-serif" font-size="14" lengthAdjust="spacing" textLength="203" x="461.5" y="219.9707">void setup(ITestContext context)</text><ellipse cx="452.5" cy="233.3516" fill="#84BE84" rx="3" ry="3" style="stroke:#038048;stroke-width:1.0;"/><text fill="#000000" font-family="sans-serif" font-size="14" lengthAdjust="spacing" textLength="115" x="461.5" y="237.5801">void sleep(int sec)</text></g><!--MD5=[c4c6d706d5740cd5745d638f463d763b]
class BeforeMethod--><g id="elem_BeforeMethod"><rect codeLine="15" fill="#F1F1F1" height="65.6094" id="BeforeMethod" rx="2.5" ry="2.5" style="stroke:#181818;stroke-width:0.5;" width="215" x="191.5" y="135"/><ellipse cx="250.25" cy="151" fill="#E3664A" rx="11" ry="11" style="stroke:#181818;stroke-width:1.0;"/><path d="M252.5938,148.5781 L252.5938,148.0625 Q252.5938,147.2344 252.1094,146.7344 Q251.6406,146.2344 250.8906,146.2344 Q250.2969,146.2344 249.7656,146.6406 Q249.2344,147.0313 248.9688,147.6563 Q248.5,148.75 248.5,149.8594 L248.5,152.375 Q248.5,154.2969 249.3594,155.4219 Q249.9219,156.1719 250.9375,156.1719 Q251.4844,156.1719 251.9219,156.0313 Q252.375,155.8906 252.625,155.6406 Q252.875,155.3906 253.0938,155.3906 Q253.3594,155.3906 253.5469,155.5781 Q253.7344,155.7656 253.7344,156.0313 Q253.7344,156.4531 253.1563,156.8438 Q252.3281,157.4063 250.8906,157.4063 Q249.7969,157.4063 249.0781,156.9063 Q248.1563,156.2656 247.7031,155 Q247.25,153.7344 247.25,152.5 L247.25,149.7656 Q247.25,147.7813 248.2344,146.3906 Q249.2188,144.9844 250.8594,144.9844 Q251.6094,144.9844 252.25,145.2969 Q252.9063,145.5938 253.375,146.3594 Q253.8438,147.125 253.8438,148.0625 L253.8438,152.5938 Q254.2031,152.7656 254.2031,153.1563 Q254.2031,153.4375 254,153.625 Q253.8125,153.7969 253.3438,153.7969 L252.5938,153.7969 L252.5938,153.75 Q252.2031,153.8125 252.0156,153.8125 Q251.0156,153.8125 250.2656,153.0781 Q249.5313,152.3281 249.5313,151.3281 Q249.5313,150.2656 250.3438,149.4688 Q251.1719,148.6719 252.5938,148.5781 Z M252.5938,149.8594 Q251.7031,149.9531 251.2344,150.375 Q250.7813,150.7969 250.7813,151.3438 Q250.7813,151.8281 251.1563,152.1719 Q251.5469,152.5156 252.1875,152.5156 Q252.3125,152.5156 252.5938,152.5 L252.5938,149.8594 Z " fill="#000000"/><text fill="#000000" font-family="sans-serif" font-size="14" lengthAdjust="spacing" textLength="89" x="270.75" y="156.7285">BeforeMethod</text><line style="stroke:#181818;stroke-width:0.5;" x1="192.5" x2="405.5" y1="167" y2="167"/><line style="stroke:#181818;stroke-width:0.5;" x1="192.5" x2="405.5" y1="175" y2="175"/><text fill="#000000" font-family="sans-serif" font-size="14" lengthAdjust="spacing" textLength="203" x="197.5" y="193.5332">void setup(ITestContext context)</text></g><!--MD5=[bf6fae6336071de6726384941a763dfb]
class AfterMethod--><g id="elem_AfterMethod"><rect codeLine="18" fill="#F1F1F1" height="65.6094" id="AfterMethod" rx="2.5" ry="2.5" style="stroke:#181818;stroke-width:0.5;" width="110" x="46" y="135"/><ellipse cx="61.45" cy="151" fill="#E3664A" rx="11" ry="11" style="stroke:#181818;stroke-width:1.0;"/><path d="M63.7938,148.5781 L63.7938,148.0625 Q63.7938,147.2344 63.3094,146.7344 Q62.8406,146.2344 62.0906,146.2344 Q61.4969,146.2344 60.9656,146.6406 Q60.4344,147.0313 60.1688,147.6563 Q59.7,148.75 59.7,149.8594 L59.7,152.375 Q59.7,154.2969 60.5594,155.4219 Q61.1219,156.1719 62.1375,156.1719 Q62.6844,156.1719 63.1219,156.0313 Q63.575,155.8906 63.825,155.6406 Q64.075,155.3906 64.2938,155.3906 Q64.5594,155.3906 64.7469,155.5781 Q64.9344,155.7656 64.9344,156.0313 Q64.9344,156.4531 64.3563,156.8438 Q63.5281,157.4063 62.0906,157.4063 Q60.9969,157.4063 60.2781,156.9063 Q59.3563,156.2656 58.9031,155 Q58.45,153.7344 58.45,152.5 L58.45,149.7656 Q58.45,147.7813 59.4344,146.3906 Q60.4188,144.9844 62.0594,144.9844 Q62.8094,144.9844 63.45,145.2969 Q64.1063,145.5938 64.575,146.3594 Q65.0438,147.125 65.0438,148.0625 L65.0438,152.5938 Q65.4031,152.7656 65.4031,153.1563 Q65.4031,153.4375 65.2,153.625 Q65.0125,153.7969 64.5438,153.7969 L63.7938,153.7969 L63.7938,153.75 Q63.4031,153.8125 63.2156,153.8125 Q62.2156,153.8125 61.4656,153.0781 Q60.7313,152.3281 60.7313,151.3281 Q60.7313,150.2656 61.5438,149.4688 Q62.3719,148.6719 63.7938,148.5781 Z M63.7938,149.8594 Q62.9031,149.9531 62.4344,150.375 Q61.9813,150.7969 61.9813,151.3438 Q61.9813,151.8281 62.3563,152.1719 Q62.7469,152.5156 63.3875,152.5156 Q63.5125,152.5156 63.7938,152.5 L63.7938,149.8594 Z " fill="#000000"/><text fill="#000000" font-family="sans-serif" font-size="14" lengthAdjust="spacing" textLength="77" x="75.55" y="156.7285">AfterMethod</text><line style="stroke:#181818;stroke-width:0.5;" x1="47" x2="155" y1="167" y2="167"/><line style="stroke:#181818;stroke-width:0.5;" x1="47" x2="155" y1="175" y2="175"/><text fill="#000000" font-family="sans-serif" font-size="14" lengthAdjust="spacing" textLength="98" x="52" y="193.5332">void teardown()</text></g><!--MD5=[af7e625d7683394aea459c9348d939cc]
class TestLoginPage--><g id="elem_TestLoginPage"><rect codeLine="25" fill="#F1F1F1" height="65.6094" id="TestLoginPage" rx="2.5" ry="2.5" style="stroke:#181818;stroke-width:0.5;" width="161" x="475.5" y="392.5"/><ellipse cx="505.35" cy="408.5" fill="#ADD1B2" rx="11" ry="11" style="stroke:#181818;stroke-width:1.0;"/><path d="M508.1156,404.375 Q508.2719,404.1563 508.4594,404.0469 Q508.6469,403.9375 508.8656,403.9375 Q509.2406,403.9375 509.475,404.2031 Q509.7094,404.4531 509.7094,405.0625 L509.7094,406.5156 Q509.7094,407.125 509.475,407.3906 Q509.2406,407.6563 508.8656,407.6563 Q508.5219,407.6563 508.3188,407.4531 Q508.1156,407.2656 508.0063,406.75 Q507.9594,406.3906 507.7719,406.2031 Q507.4438,405.8281 506.8344,405.6094 Q506.225,405.3906 505.6,405.3906 Q504.8344,405.3906 504.1938,405.7188 Q503.5688,406.0469 503.0688,406.7969 Q502.5844,407.5469 502.5844,408.5781 L502.5844,409.6719 Q502.5844,410.9063 503.475,411.7344 Q504.3656,412.5469 505.9594,412.5469 Q506.8969,412.5469 507.5531,412.2969 Q507.9438,412.1406 508.3656,411.7031 Q508.6313,411.4375 508.7719,411.3594 Q508.9281,411.2813 509.1313,411.2813 Q509.4594,411.2813 509.7094,411.5469 Q509.975,411.7969 509.975,412.1406 Q509.975,412.4844 509.6313,412.8906 Q509.1313,413.4688 508.3344,413.7969 Q507.2563,414.25 505.9594,414.25 Q504.4438,414.25 503.2406,413.625 Q502.2563,413.125 501.5688,412.0625 Q500.8813,410.9844 500.8813,409.7031 L500.8813,408.5469 Q500.8813,407.2188 501.4906,406.0781 Q502.1156,404.9219 503.2094,404.3125 Q504.3031,403.6875 505.5375,403.6875 Q506.2719,403.6875 506.9125,403.8594 Q507.5688,404.0156 508.1156,404.375 Z " fill="#000000"/><text fill="#000000" font-family="sans-serif" font-size="14" lengthAdjust="spacing" textLength="96" x="522.65" y="414.2285">TestLoginPage</text><line style="stroke:#181818;stroke-width:0.5;" x1="476.5" x2="635.5" y1="424.5" y2="424.5"/><rect fill="none" height="6" style="stroke:#C82930;stroke-width:1.0;" width="6" x="483.5" y="435.8047"/><text fill="#000000" font-family="sans-serif" font-size="14" lengthAdjust="spacing" textLength="135" x="495.5" y="443.0332">LoginPage loginPage</text><line style="stroke:#181818;stroke-width:0.5;" x1="476.5" x2="635.5" y1="450.1094" y2="450.1094"/></g><!--MD5=[df38be88ccee13e832d6fafd6288a4ca]
class Test--><g id="elem_Test"><rect codeLine="28" fill="#F1F1F1" height="100.8281" id="Test" rx="2.5" ry="2.5" style="stroke:#181818;stroke-width:0.5;" width="134" x="306" y="375"/><ellipse cx="354.75" cy="391" fill="#E3664A" rx="11" ry="11" style="stroke:#181818;stroke-width:1.0;"/><path d="M357.0938,388.5781 L357.0938,388.0625 Q357.0938,387.2344 356.6094,386.7344 Q356.1406,386.2344 355.3906,386.2344 Q354.7969,386.2344 354.2656,386.6406 Q353.7344,387.0313 353.4688,387.6563 Q353,388.75 353,389.8594 L353,392.375 Q353,394.2969 353.8594,395.4219 Q354.4219,396.1719 355.4375,396.1719 Q355.9844,396.1719 356.4219,396.0313 Q356.875,395.8906 357.125,395.6406 Q357.375,395.3906 357.5938,395.3906 Q357.8594,395.3906 358.0469,395.5781 Q358.2344,395.7656 358.2344,396.0313 Q358.2344,396.4531 357.6563,396.8438 Q356.8281,397.4063 355.3906,397.4063 Q354.2969,397.4063 353.5781,396.9063 Q352.6563,396.2656 352.2031,395 Q351.75,393.7344 351.75,392.5 L351.75,389.7656 Q351.75,387.7813 352.7344,386.3906 Q353.7188,384.9844 355.3594,384.9844 Q356.1094,384.9844 356.75,385.2969 Q357.4063,385.5938 357.875,386.3594 Q358.3438,387.125 358.3438,388.0625 L358.3438,392.5938 Q358.7031,392.7656 358.7031,393.1563 Q358.7031,393.4375 358.5,393.625 Q358.3125,393.7969 357.8438,393.7969 L357.0938,393.7969 L357.0938,393.75 Q356.7031,393.8125 356.5156,393.8125 Q355.5156,393.8125 354.7656,393.0781 Q354.0313,392.3281 354.0313,391.3281 Q354.0313,390.2656 354.8438,389.4688 Q355.6719,388.6719 357.0938,388.5781 Z M357.0938,389.8594 Q356.2031,389.9531 355.7344,390.375 Q355.2813,390.7969 355.2813,391.3438 Q355.2813,391.8281 355.6563,392.1719 Q356.0469,392.5156 356.6875,392.5156 Q356.8125,392.5156 357.0938,392.5 L357.0938,389.8594 Z " fill="#000000"/><text fill="#000000" font-family="sans-serif" font-size="14" lengthAdjust="spacing" textLength="28" x="375.25" y="396.7285">Test</text><line style="stroke:#181818;stroke-width:0.5;" x1="307" x2="439" y1="407" y2="407"/><line style="stroke:#181818;stroke-width:0.5;" x1="307" x2="439" y1="415" y2="415"/><text fill="#000000" font-family="sans-serif" font-size="14" lengthAdjust="spacing" textLength="104" x="312" y="433.5332">void validLogin()</text><text fill="#000000" font-family="sans-serif" font-size="14" lengthAdjust="spacing" textLength="117" x="312" y="451.1426">void inValidLogin()</text><text fill="#000000" font-family="sans-serif" font-size="14" lengthAdjust="spacing" textLength="122" x="312" y="468.752">void unstableTest()</text></g><!--MD5=[41b3e0deefa0fbdaaef97f1db5961522]
class Severity--><g id="elem_Severity"><rect codeLine="33" fill="#F1F1F1" height="65.6094" id="Severity" rx="2.5" ry="2.5" style="stroke:#181818;stroke-width:0.5;" width="116" x="155" y="392.5"/><ellipse cx="184.85" cy="408.5" fill="#E3664A" rx="11" ry="11" style="stroke:#181818;stroke-width:1.0;"/><path d="M187.1938,406.0781 L187.1938,405.5625 Q187.1938,404.7344 186.7094,404.2344 Q186.2406,403.7344 185.4906,403.7344 Q184.8969,403.7344 184.3656,404.1406 Q183.8344,404.5313 183.5688,405.1563 Q183.1,406.25 183.1,407.3594 L183.1,409.875 Q183.1,411.7969 183.9594,412.9219 Q184.5219,413.6719 185.5375,413.6719 Q186.0844,413.6719 186.5219,413.5313 Q186.975,413.3906 187.225,413.1406 Q187.475,412.8906 187.6938,412.8906 Q187.9594,412.8906 188.1469,413.0781 Q188.3344,413.2656 188.3344,413.5313 Q188.3344,413.9531 187.7563,414.3438 Q186.9281,414.9063 185.4906,414.9063 Q184.3969,414.9063 183.6781,414.4063 Q182.7563,413.7656 182.3031,412.5 Q181.85,411.2344 181.85,410 L181.85,407.2656 Q181.85,405.2813 182.8344,403.8906 Q183.8188,402.4844 185.4594,402.4844 Q186.2094,402.4844 186.85,402.7969 Q187.5063,403.0938 187.975,403.8594 Q188.4438,404.625 188.4438,405.5625 L188.4438,410.0938 Q188.8031,410.2656 188.8031,410.6563 Q188.8031,410.9375 188.6,411.125 Q188.4125,411.2969 187.9438,411.2969 L187.1938,411.2969 L187.1938,411.25 Q186.8031,411.3125 186.6156,411.3125 Q185.6156,411.3125 184.8656,410.5781 Q184.1313,409.8281 184.1313,408.8281 Q184.1313,407.7656 184.9438,406.9688 Q185.7719,406.1719 187.1938,406.0781 Z M187.1938,407.3594 Q186.3031,407.4531 185.8344,407.875 Q185.3813,408.2969 185.3813,408.8438 Q185.3813,409.3281 185.7563,409.6719 Q186.1469,410.0156 186.7875,410.0156 Q186.9125,410.0156 187.1938,410 L187.1938,407.3594 Z " fill="#000000"/><text fill="#000000" font-family="sans-serif" font-size="14" lengthAdjust="spacing" textLength="51" x="202.15" y="414.2285">Severity</text><line style="stroke:#181818;stroke-width:0.5;" x1="156" x2="270" y1="424.5" y2="424.5"/><line style="stroke:#181818;stroke-width:0.5;" x1="156" x2="270" y1="432.5" y2="432.5"/><text fill="#000000" font-family="sans-serif" font-size="14" lengthAdjust="spacing" textLength="104" x="161" y="451.0332">void validLogin()</text></g><!--MD5=[285b5178ed2196a17b94641df0e2d559]
reverse link Base to TestLoginPage--><g id="link_Base_TestLoginPage"><path d="M556,265.44 C556,310.27 556,360.59 556,392.39 " fill="none" id="Base-backto-TestLoginPage" style="stroke:#181818;stroke-width:1.0;"/><polygon fill="none" points="549,265.31,556,245.31,563,265.31,549,265.31" style="stroke:#181818;stroke-width:1.0;"/></g><!--MD5=[7596eb85f51e3833297903d07d73554d]
@startuml Demo

package src.test.java <<Folder>> {

package helper <<Node>> {

class Base {
  + {static} Logger LOGGER
  + {static} ReportAllureHelper allureHelper
  # {static} ThreadLocal<WebDriver> driver
  + ChromeOptions chromeOptions

  + void setup(ITestContext context)
  + void sleep(int sec)
}
annotation BeforeMethod {
  void setup(ITestContext context)
}
annotation AfterMethod {
  void teardown()
}
}

package tests <<Node>> {
  package theInternet <<Node>> {
  class TestLoginPage extends Base {
    - LoginPage loginPage
  }
annotation Test {
  void validLogin()
  void inValidLogin()
  void unstableTest()
}
annotation Severity {
  void validLogin()
}
}
}

@enduml

PlantUML version 1.2022.7(Mon Aug 22 22:31:30 IST 2022)
(GPL source distribution)
Java Runtime: Java(TM) SE Runtime Environment
JVM: Java HotSpot(TM) 64-Bit Server VM
Default Encoding: UTF-8
Language: en
Country: US
--></g></svg>