<?xml version="1.0" encoding="UTF-8" standalone="no"?><svg xmlns="http://www.w3.org/2000/svg" xmlns:xlink="http://www.w3.org/1999/xlink" contentStyleType="text/css" height="562px" preserveAspectRatio="none" style="width:738px;height:562px;background:#FFFFFF;" version="1.1" viewBox="0 0 738 562" width="738px" zoomAndPan="magnify"><defs/><g><!--MD5=[5ee9d121a7921493ed90147406c3bd42]
cluster src.test.java--><g id="cluster_src.test.java"><polygon fill="none" points="16,16,26,6,721,6,721,535,711,545,16,545,16,16" style="stroke:#181818;stroke-width:1.0;"/><line style="stroke:#181818;stroke-width:1.0;" x1="711" x2="721" y1="16" y2="6"/><line style="stroke:#181818;stroke-width:1.0;" x1="16" x2="711" y1="16" y2="16"/><line style="stroke:#181818;stroke-width:1.0;" x1="711" x2="711" y1="16" y2="545"/><text fill="#000000" font-family="sans-serif" font-size="14" font-weight="bold" lengthAdjust="spacing" textLength="86" x="321.5" y="33.5332">src.test.java</text></g><!--MD5=[be48e98a4ad7f5f2a1ba2465e5010d2c]
cluster helper--><g id="cluster_helper"><polygon fill="none" points="40,65,50,55,697,55,697,256,687,266,40,266,40,65" style="stroke:#181818;stroke-width:1.0;"/><line style="stroke:#181818;stroke-width:1.0;" x1="687" x2="697" y1="65" y2="55"/><line style="stroke:#181818;stroke-width:1.0;" x1="40" x2="687" y1="65" y2="65"/><line style="stroke:#181818;stroke-width:1.0;" x1="687" x2="687" y1="65" y2="266"/><text fill="#000000" font-family="sans-serif" font-size="14" font-weight="bold" lengthAdjust="spacing" textLength="46" x="341.5" y="82.5332">helper</text></g><!--MD5=[52a05effe668272d5671c3f0d259ac82]
cluster tests--><g id="cluster_tests"><polygon fill="none" points="125,300,135,290,687,290,687,511,677,521,125,521,125,300" style="stroke:#181818;stroke-width:1.0;"/><line style="stroke:#181818;stroke-width:1.0;" x1="677" x2="687" y1="300" y2="290"/><line style="stroke:#181818;stroke-width:1.0;" x1="125" x2="677" y1="300" y2="300"/><line style="stroke:#181818;stroke-width:1.0;" x1="677" x2="677" y1="300" y2="521"/><text fill="#000000" font-family="sans-serif" font-size="14" font-weight="bold" lengthAdjust="spacing" textLength="35" x="384.5" y="317.5332">tests</text></g><!--MD5=[4a1ba3d21b33ac10642cea05bfb06112]
cluster theInternet--><g id="cluster_theInternet"><polygon fill="none" points="149,349,159,339,663,339,663,487,653,497,149,497,149,349" style="stroke:#181818;stroke-width:1.0;"/><line style="stroke:#181818;stroke-width:1.0;" x1="653" x2="663" y1="349" y2="339"/><line style="stroke:#181818;stroke-width:1.0;" x1="149" x2="653" y1="349" y2="349"/><line style="stroke:#181818;stroke-width:1.0;" x1="653" x2="653" y1="349" y2="497"/><text fill="#000000" font-family="sans-serif" font-size="14" font-weight="bold" lengthAdjust="spacing" textLength="79" x="362.5" y="366.5332">theInternet</text></g><!--MD5=[ae336da5efe52b168083e063e86251c2]
class Base--><g id="elem_Base"><rect codeLine="6" fill="#F1F1F1" height="153.6563" id="Base" rx="2.5" ry="2.5" style="stroke:#181818;stroke-width:0.5;" width="229" x="451.5" y="96"/><ellipse cx="545.75" cy="112" fill="#ADD1B2" rx="11" ry="11" style="stroke:#181818;stroke-width:1.0;"/><path d="M548.5156,107.875 Q548.6719,107.6563 548.8594,107.5469 Q549.0469,107.4375 549.2656,107.4375 Q549.6406,107.4375 549.875,107.7031 Q550.1094,107.9531 550.1094,108.5625 L550.1094,110.0156 Q550.1094,110.625 549.875,110.8906 Q549.6406,111.1563 549.2656,111.1563 Q548.9219,111.1563 548.7188,110.9531 Q548.5156,110.7656 548.4063,110.25 Q548.3594,109.8906 548.1719,109.7031 Q547.8438,109.3281 547.2344,109.1094 Q546.625,108.8906 546,108.8906 Q545.2344,108.8906 544.5938,109.2188 Q543.9688,109.5469 543.4688,110.2969 Q542.9844,111.0469 542.9844,112.0781 L542.9844,113.1719 Q542.9844,114.4063 543.875,115.2344 Q544.7656,116.0469 546.3594,116.0469 Q547.2969,116.0469 547.9531,115.7969 Q548.3438,115.6406 548.7656,115.2031 Q549.0313,114.9375 549.1719,114.8594 Q549.3281,114.7813 549.5313,114.7813 Q549.8594,114.7813 550.1094,115.0469 Q550.375,115.2969 550.375,115.6406 Q550.375,115.9844 550.0313,116.3906 Q549.5313,116.9688 548.7344,117.2969 Q547.6563,117.75 546.3594,117.75 Q544.8438,117.75 543.6406,117.125 Q542.6563,116.625 541.9688,115.5625 Q541.2813,114.4844 541.2813,113.2031 L541.2813,112.0469 Q541.2813,110.7188 541.8906,109.5781 Q542.5156,108.4219 543.6094,107.8125 Q544.7031,107.1875 545.9375,107.1875 Q546.6719,107.1875 547.3125,107.3594 Q547.9688,107.5156 548.5156,107.875 Z " fill="#000000"/><text fill="#000000" font-family="sans-serif" font-size="14" lengthAdjust="spacing" textLength="32" x="566.25" y="117.7285">Base</text><line style="stroke:#181818;stroke-width:0.5;" x1="452.5" x2="679.5" y1="128" y2="128"/><ellipse cx="462.5" cy="142.3047" fill="none" rx="3" ry="3" style="stroke:#038048;stroke-width:1.0;"/><text fill="#000000" font-family="sans-serif" font-size="14" lengthAdjust="spacing" text-decoration="underline" textLength="109" x="471.5" y="146.5332">Logger LOGGER</text><ellipse cx="462.5" cy="159.9141" fill="none" rx="3" ry="3" style="stroke:#038048;stroke-width:1.0;"/><text fill="#000000" font-family="sans-serif" font-size="14" lengthAdjust="spacing" text-decoration="underline" textLength="200" x="471.5" y="164.1426">ReportAllureHelper allureHelper</text><polygon fill="none" points="462.5,172.5234,466.5,176.5234,462.5,180.5234,458.5,176.5234" style="stroke:#B38D22;stroke-width:1.0;"/><text fill="#000000" font-family="sans-serif" font-size="14" lengthAdjust="spacing" text-decoration="underline" textLength="203" x="471.5" y="181.752">ThreadLocal&lt;WebDriver&gt; driver</text><ellipse cx="462.5" cy="195.1328" fill="none" rx="3" ry="3" style="stroke:#038048;stroke-width:1.0;"/><text fill="#000000" font-family="sans-serif" font-size="14" lengthAdjust="spacing" textLength="199" x="471.5" y="199.3613">ChromeOptions chromeOptions</text><line style="stroke:#181818;stroke-width:0.5;" x1="452.5" x2="679.5" y1="206.4375" y2="206.4375"/><ellipse cx="462.5" cy="220.7422" fill="#84BE84" rx="3" ry="3" style="stroke:#038048;stroke-width:1.0;"/><text fill="#000000" font-family="sans-serif" font-size="14" lengthAdjust="spacing" textLength="203" x="471.5" y="224.9707">void setup(ITestContext context)</text><ellipse cx="462.5" cy="238.3516" fill="#84BE84" rx="3" ry="3" style="stroke:#038048;stroke-width:1.0;"/><text fill="#000000" font-family="sans-serif" font-size="14" lengthAdjust="spacing" textLength="115" x="471.5" y="242.5801">void sleep(int sec)</text></g><!--MD5=[c4c6d706d5740cd5745d638f463d763b]
class BeforeMethod--><g id="elem_BeforeMethod"><rect codeLine="15" fill="#F1F1F1" height="65.6094" id="BeforeMethod" rx="2.5" ry="2.5" style="stroke:#181818;stroke-width:0.5;" width="215" x="201.5" y="140"/><ellipse cx="260.25" cy="156" fill="#E3664A" rx="11" ry="11" style="stroke:#181818;stroke-width:1.0;"/><path d="M262.5938,153.5781 L262.5938,153.0625 Q262.5938,152.2344 262.1094,151.7344 Q261.6406,151.2344 260.8906,151.2344 Q260.2969,151.2344 259.7656,151.6406 Q259.2344,152.0313 258.9688,152.6563 Q258.5,153.75 258.5,154.8594 L258.5,157.375 Q258.5,159.2969 259.3594,160.4219 Q259.9219,161.1719 260.9375,161.1719 Q261.4844,161.1719 261.9219,161.0313 Q262.375,160.8906 262.625,160.6406 Q262.875,160.3906 263.0938,160.3906 Q263.3594,160.3906 263.5469,160.5781 Q263.7344,160.7656 263.7344,161.0313 Q263.7344,161.4531 263.1563,161.8438 Q262.3281,162.4063 260.8906,162.4063 Q259.7969,162.4063 259.0781,161.9063 Q258.1563,161.2656 257.7031,160 Q257.25,158.7344 257.25,157.5 L257.25,154.7656 Q257.25,152.7813 258.2344,151.3906 Q259.2188,149.9844 260.8594,149.9844 Q261.6094,149.9844 262.25,150.2969 Q262.9063,150.5938 263.375,151.3594 Q263.8438,152.125 263.8438,153.0625 L263.8438,157.5938 Q264.2031,157.7656 264.2031,158.1563 Q264.2031,158.4375 264,158.625 Q263.8125,158.7969 263.3438,158.7969 L262.5938,158.7969 L262.5938,158.75 Q262.2031,158.8125 262.0156,158.8125 Q261.0156,158.8125 260.2656,158.0781 Q259.5313,157.3281 259.5313,156.3281 Q259.5313,155.2656 260.3438,154.4688 Q261.1719,153.6719 262.5938,153.5781 Z M262.5938,154.8594 Q261.7031,154.9531 261.2344,155.375 Q260.7813,155.7969 260.7813,156.3438 Q260.7813,156.8281 261.1563,157.1719 Q261.5469,157.5156 262.1875,157.5156 Q262.3125,157.5156 262.5938,157.5 L262.5938,154.8594 Z " fill="#000000"/><text fill="#000000" font-family="sans-serif" font-size="14" lengthAdjust="spacing" textLength="89" x="280.75" y="161.7285">BeforeMethod</text><line style="stroke:#181818;stroke-width:0.5;" x1="202.5" x2="415.5" y1="172" y2="172"/><line style="stroke:#181818;stroke-width:0.5;" x1="202.5" x2="415.5" y1="180" y2="180"/><text fill="#000000" font-family="sans-serif" font-size="14" lengthAdjust="spacing" textLength="203" x="207.5" y="198.5332">void setup(ITestContext context)</text></g><!--MD5=[bf6fae6336071de6726384941a763dfb]
class AfterMethod--><g id="elem_AfterMethod"><rect codeLine="18" fill="#F1F1F1" height="65.6094" id="AfterMethod" rx="2.5" ry="2.5" style="stroke:#181818;stroke-width:0.5;" width="110" x="56" y="140"/><ellipse cx="71.45" cy="156" fill="#E3664A" rx="11" ry="11" style="stroke:#181818;stroke-width:1.0;"/><path d="M73.7938,153.5781 L73.7938,153.0625 Q73.7938,152.2344 73.3094,151.7344 Q72.8406,151.2344 72.0906,151.2344 Q71.4969,151.2344 70.9656,151.6406 Q70.4344,152.0313 70.1688,152.6563 Q69.7,153.75 69.7,154.8594 L69.7,157.375 Q69.7,159.2969 70.5594,160.4219 Q71.1219,161.1719 72.1375,161.1719 Q72.6844,161.1719 73.1219,161.0313 Q73.575,160.8906 73.825,160.6406 Q74.075,160.3906 74.2938,160.3906 Q74.5594,160.3906 74.7469,160.5781 Q74.9344,160.7656 74.9344,161.0313 Q74.9344,161.4531 74.3563,161.8438 Q73.5281,162.4063 72.0906,162.4063 Q70.9969,162.4063 70.2781,161.9063 Q69.3563,161.2656 68.9031,160 Q68.45,158.7344 68.45,157.5 L68.45,154.7656 Q68.45,152.7813 69.4344,151.3906 Q70.4188,149.9844 72.0594,149.9844 Q72.8094,149.9844 73.45,150.2969 Q74.1063,150.5938 74.575,151.3594 Q75.0438,152.125 75.0438,153.0625 L75.0438,157.5938 Q75.4031,157.7656 75.4031,158.1563 Q75.4031,158.4375 75.2,158.625 Q75.0125,158.7969 74.5438,158.7969 L73.7938,158.7969 L73.7938,158.75 Q73.4031,158.8125 73.2156,158.8125 Q72.2156,158.8125 71.4656,158.0781 Q70.7313,157.3281 70.7313,156.3281 Q70.7313,155.2656 71.5438,154.4688 Q72.3719,153.6719 73.7938,153.5781 Z M73.7938,154.8594 Q72.9031,154.9531 72.4344,155.375 Q71.9813,155.7969 71.9813,156.3438 Q71.9813,156.8281 72.3563,157.1719 Q72.7469,157.5156 73.3875,157.5156 Q73.5125,157.5156 73.7938,157.5 L73.7938,154.8594 Z " fill="#000000"/><text fill="#000000" font-family="sans-serif" font-size="14" lengthAdjust="spacing" textLength="77" x="85.55" y="161.7285">AfterMethod</text><line style="stroke:#181818;stroke-width:0.5;" x1="57" x2="165" y1="172" y2="172"/><line style="stroke:#181818;stroke-width:0.5;" x1="57" x2="165" y1="180" y2="180"/><text fill="#000000" font-family="sans-serif" font-size="14" lengthAdjust="spacing" textLength="98" x="62" y="198.5332">void teardown()</text></g><!--MD5=[af7e625d7683394aea459c9348d939cc]
class TestLoginPage--><g id="elem_TestLoginPage"><rect codeLine="25" fill="#F1F1F1" height="65.6094" id="TestLoginPage" rx="2.5" ry="2.5" style="stroke:#181818;stroke-width:0.5;" width="161" x="485.5" y="397.5"/><ellipse cx="515.35" cy="413.5" fill="#ADD1B2" rx="11" ry="11" style="stroke:#181818;stroke-width:1.0;"/><path d="M518.1156,409.375 Q518.2719,409.1563 518.4594,409.0469 Q518.6469,408.9375 518.8656,408.9375 Q519.2406,408.9375 519.475,409.2031 Q519.7094,409.4531 519.7094,410.0625 L519.7094,411.5156 Q519.7094,412.125 519.475,412.3906 Q519.2406,412.6563 518.8656,412.6563 Q518.5219,412.6563 518.3188,412.4531 Q518.1156,412.2656 518.0063,411.75 Q517.9594,411.3906 517.7719,411.2031 Q517.4438,410.8281 516.8344,410.6094 Q516.225,410.3906 515.6,410.3906 Q514.8344,410.3906 514.1938,410.7188 Q513.5688,411.0469 513.0688,411.7969 Q512.5844,412.5469 512.5844,413.5781 L512.5844,414.6719 Q512.5844,415.9063 513.475,416.7344 Q514.3656,417.5469 515.9594,417.5469 Q516.8969,417.5469 517.5531,417.2969 Q517.9438,417.1406 518.3656,416.7031 Q518.6313,416.4375 518.7719,416.3594 Q518.9281,416.2813 519.1313,416.2813 Q519.4594,416.2813 519.7094,416.5469 Q519.975,416.7969 519.975,417.1406 Q519.975,417.4844 519.6313,417.8906 Q519.1313,418.4688 518.3344,418.7969 Q517.2563,419.25 515.9594,419.25 Q514.4438,419.25 513.2406,418.625 Q512.2563,418.125 511.5688,417.0625 Q510.8813,415.9844 510.8813,414.7031 L510.8813,413.5469 Q510.8813,412.2188 511.4906,411.0781 Q512.1156,409.9219 513.2094,409.3125 Q514.3031,408.6875 515.5375,408.6875 Q516.2719,408.6875 516.9125,408.8594 Q517.5688,409.0156 518.1156,409.375 Z " fill="#000000"/><text fill="#000000" font-family="sans-serif" font-size="14" lengthAdjust="spacing" textLength="96" x="532.65" y="419.2285">TestLoginPage</text><line style="stroke:#181818;stroke-width:0.5;" x1="486.5" x2="645.5" y1="429.5" y2="429.5"/><rect fill="none" height="6" style="stroke:#C82930;stroke-width:1.0;" width="6" x="493.5" y="440.8047"/><text fill="#000000" font-family="sans-serif" font-size="14" lengthAdjust="spacing" textLength="135" x="505.5" y="448.0332">LoginPage loginPage</text><line style="stroke:#181818;stroke-width:0.5;" x1="486.5" x2="645.5" y1="455.1094" y2="455.1094"/></g><!--MD5=[df38be88ccee13e832d6fafd6288a4ca]
class Test--><g id="elem_Test"><rect codeLine="28" fill="#F1F1F1" height="100.8281" id="Test" rx="2.5" ry="2.5" style="stroke:#181818;stroke-width:0.5;" width="134" x="316" y="380"/><ellipse cx="364.75" cy="396" fill="#E3664A" rx="11" ry="11" style="stroke:#181818;stroke-width:1.0;"/><path d="M367.0938,393.5781 L367.0938,393.0625 Q367.0938,392.2344 366.6094,391.7344 Q366.1406,391.2344 365.3906,391.2344 Q364.7969,391.2344 364.2656,391.6406 Q363.7344,392.0313 363.4688,392.6563 Q363,393.75 363,394.8594 L363,397.375 Q363,399.2969 363.8594,400.4219 Q364.4219,401.1719 365.4375,401.1719 Q365.9844,401.1719 366.4219,401.0313 Q366.875,400.8906 367.125,400.6406 Q367.375,400.3906 367.5938,400.3906 Q367.8594,400.3906 368.0469,400.5781 Q368.2344,400.7656 368.2344,401.0313 Q368.2344,401.4531 367.6563,401.8438 Q366.8281,402.4063 365.3906,402.4063 Q364.2969,402.4063 363.5781,401.9063 Q362.6563,401.2656 362.2031,400 Q361.75,398.7344 361.75,397.5 L361.75,394.7656 Q361.75,392.7813 362.7344,391.3906 Q363.7188,389.9844 365.3594,389.9844 Q366.1094,389.9844 366.75,390.2969 Q367.4063,390.5938 367.875,391.3594 Q368.3438,392.125 368.3438,393.0625 L368.3438,397.5938 Q368.7031,397.7656 368.7031,398.1563 Q368.7031,398.4375 368.5,398.625 Q368.3125,398.7969 367.8438,398.7969 L367.0938,398.7969 L367.0938,398.75 Q366.7031,398.8125 366.5156,398.8125 Q365.5156,398.8125 364.7656,398.0781 Q364.0313,397.3281 364.0313,396.3281 Q364.0313,395.2656 364.8438,394.4688 Q365.6719,393.6719 367.0938,393.5781 Z M367.0938,394.8594 Q366.2031,394.9531 365.7344,395.375 Q365.2813,395.7969 365.2813,396.3438 Q365.2813,396.8281 365.6563,397.1719 Q366.0469,397.5156 366.6875,397.5156 Q366.8125,397.5156 367.0938,397.5 L367.0938,394.8594 Z " fill="#000000"/><text fill="#000000" font-family="sans-serif" font-size="14" lengthAdjust="spacing" textLength="28" x="385.25" y="401.7285">Test</text><line style="stroke:#181818;stroke-width:0.5;" x1="317" x2="449" y1="412" y2="412"/><line style="stroke:#181818;stroke-width:0.5;" x1="317" x2="449" y1="420" y2="420"/><text fill="#000000" font-family="sans-serif" font-size="14" lengthAdjust="spacing" textLength="104" x="322" y="438.5332">void validLogin()</text><text fill="#000000" font-family="sans-serif" font-size="14" lengthAdjust="spacing" textLength="117" x="322" y="456.1426">void inValidLogin()</text><text fill="#000000" font-family="sans-serif" font-size="14" lengthAdjust="spacing" textLength="122" x="322" y="473.752">void unstableTest()</text></g><!--MD5=[41b3e0deefa0fbdaaef97f1db5961522]
class Severity--><g id="elem_Severity"><rect codeLine="33" fill="#F1F1F1" height="65.6094" id="Severity" rx="2.5" ry="2.5" style="stroke:#181818;stroke-width:0.5;" width="116" x="165" y="397.5"/><ellipse cx="194.85" cy="413.5" fill="#E3664A" rx="11" ry="11" style="stroke:#181818;stroke-width:1.0;"/><path d="M197.1938,411.0781 L197.1938,410.5625 Q197.1938,409.7344 196.7094,409.2344 Q196.2406,408.7344 195.4906,408.7344 Q194.8969,408.7344 194.3656,409.1406 Q193.8344,409.5313 193.5688,410.1563 Q193.1,411.25 193.1,412.3594 L193.1,414.875 Q193.1,416.7969 193.9594,417.9219 Q194.5219,418.6719 195.5375,418.6719 Q196.0844,418.6719 196.5219,418.5313 Q196.975,418.3906 197.225,418.1406 Q197.475,417.8906 197.6938,417.8906 Q197.9594,417.8906 198.1469,418.0781 Q198.3344,418.2656 198.3344,418.5313 Q198.3344,418.9531 197.7563,419.3438 Q196.9281,419.9063 195.4906,419.9063 Q194.3969,419.9063 193.6781,419.4063 Q192.7563,418.7656 192.3031,417.5 Q191.85,416.2344 191.85,415 L191.85,412.2656 Q191.85,410.2813 192.8344,408.8906 Q193.8188,407.4844 195.4594,407.4844 Q196.2094,407.4844 196.85,407.7969 Q197.5063,408.0938 197.975,408.8594 Q198.4438,409.625 198.4438,410.5625 L198.4438,415.0938 Q198.8031,415.2656 198.8031,415.6563 Q198.8031,415.9375 198.6,416.125 Q198.4125,416.2969 197.9438,416.2969 L197.1938,416.2969 L197.1938,416.25 Q196.8031,416.3125 196.6156,416.3125 Q195.6156,416.3125 194.8656,415.5781 Q194.1313,414.8281 194.1313,413.8281 Q194.1313,412.7656 194.9438,411.9688 Q195.7719,411.1719 197.1938,411.0781 Z M197.1938,412.3594 Q196.3031,412.4531 195.8344,412.875 Q195.3813,413.2969 195.3813,413.8438 Q195.3813,414.3281 195.7563,414.6719 Q196.1469,415.0156 196.7875,415.0156 Q196.9125,415.0156 197.1938,415 L197.1938,412.3594 Z " fill="#000000"/><text fill="#000000" font-family="sans-serif" font-size="14" lengthAdjust="spacing" textLength="51" x="212.15" y="419.2285">Severity</text><line style="stroke:#181818;stroke-width:0.5;" x1="166" x2="280" y1="429.5" y2="429.5"/><line style="stroke:#181818;stroke-width:0.5;" x1="166" x2="280" y1="437.5" y2="437.5"/><text fill="#000000" font-family="sans-serif" font-size="14" lengthAdjust="spacing" textLength="104" x="171" y="456.0332">void validLogin()</text></g><!--MD5=[285b5178ed2196a17b94641df0e2d559]
reverse link Base to TestLoginPage--><g id="link_Base_TestLoginPage"><path d="M566,270.44 C566,315.27 566,365.59 566,397.39 " fill="none" id="Base-backto-TestLoginPage" style="stroke:#181818;stroke-width:1.0;"/><polygon fill="none" points="559,270.31,566,250.31,573,270.31,559,270.31" style="stroke:#181818;stroke-width:1.0;"/></g><!--MD5=[ef47d85494e82e25389f5b3d3e1abd21]
@startuml Demo

package src.test.java <<Node>> {

package helper <<Node>> {

class Base {
  + {static} Logger LOGGER
  + {static} ReportAllureHelper allureHelper
  # {static} ThreadLocal<WebDriver> driver
  + ChromeOptions chromeOptions

  + void setup(ITestContext context)
  + void sleep(int sec)
}
annotation BeforeMethod {
  void setup(ITestContext context)
}
annotation AfterMethod {
  void teardown()
}
}

package tests <<Node>> {
  package theInternet <<Node>> {
  class TestLoginPage extends Base {
    - LoginPage loginPage
  }
annotation Test {
  void validLogin()
  void inValidLogin()
  void unstableTest()
}
annotation Severity {
  void validLogin()
}
}
}

@enduml

PlantUML version 1.2022.7(Mon Aug 22 22:31:30 IST 2022)
(GPL source distribution)
Java Runtime: Java(TM) SE Runtime Environment
JVM: Java HotSpot(TM) 64-Bit Server VM
Default Encoding: UTF-8
Language: en
Country: US
--></g></svg>