<?xml version="1.0" encoding="UTF-8" standalone="no"?><svg xmlns="http://www.w3.org/2000/svg" xmlns:xlink="http://www.w3.org/1999/xlink" contentStyleType="text/css" height="390px" preserveAspectRatio="none" style="width:950px;height:390px;background:#FFFFFF;" version="1.1" viewBox="0 0 950 390" width="950px" zoomAndPan="magnify"><defs/><g><!--MD5=[52a05effe668272d5671c3f0d259ac82]
cluster tests--><g id="cluster_tests"><polygon fill="none" points="16,187,26,177,554,177,554,363,544,373,16,373,16,187" style="stroke:#181818;stroke-width:1.0;"/><line style="stroke:#181818;stroke-width:1.0;" x1="544" x2="554" y1="187" y2="177"/><line style="stroke:#181818;stroke-width:1.0;" x1="16" x2="544" y1="187" y2="187"/><line style="stroke:#181818;stroke-width:1.0;" x1="544" x2="544" y1="187" y2="373"/><text fill="#000000" font-family="sans-serif" font-size="14" font-weight="bold" lengthAdjust="spacing" textLength="35" x="263.5" y="204.5332">tests</text></g><!--MD5=[4a1ba3d21b33ac10642cea05bfb06112]
cluster theInternet--><g id="cluster_theInternet"><polygon fill="none" points="336,236,346,226,530,226,530,339,520,349,336,349,336,236" style="stroke:#181818;stroke-width:1.0;"/><line style="stroke:#181818;stroke-width:1.0;" x1="520" x2="530" y1="236" y2="226"/><line style="stroke:#181818;stroke-width:1.0;" x1="336" x2="520" y1="236" y2="236"/><line style="stroke:#181818;stroke-width:1.0;" x1="520" x2="520" y1="236" y2="349"/><text fill="#000000" font-family="sans-serif" font-size="14" font-weight="bold" lengthAdjust="spacing" textLength="79" x="389.5" y="253.5332">theInternet</text></g><!--MD5=[df38be88ccee13e832d6fafd6288a4ca]
class Test--><g id="elem_Test"><rect codeLine="25" fill="#F1F1F1" height="100.8281" id="Test" rx="2.5" ry="2.5" style="stroke:#181818;stroke-width:0.5;" width="134" x="183" y="249.5"/><ellipse cx="231.75" cy="265.5" fill="#E3664A" rx="11" ry="11" style="stroke:#181818;stroke-width:1.0;"/><path d="M234.0938,263.0781 L234.0938,262.5625 Q234.0938,261.7344 233.6094,261.2344 Q233.1406,260.7344 232.3906,260.7344 Q231.7969,260.7344 231.2656,261.1406 Q230.7344,261.5313 230.4688,262.1563 Q230,263.25 230,264.3594 L230,266.875 Q230,268.7969 230.8594,269.9219 Q231.4219,270.6719 232.4375,270.6719 Q232.9844,270.6719 233.4219,270.5313 Q233.875,270.3906 234.125,270.1406 Q234.375,269.8906 234.5938,269.8906 Q234.8594,269.8906 235.0469,270.0781 Q235.2344,270.2656 235.2344,270.5313 Q235.2344,270.9531 234.6563,271.3438 Q233.8281,271.9063 232.3906,271.9063 Q231.2969,271.9063 230.5781,271.4063 Q229.6563,270.7656 229.2031,269.5 Q228.75,268.2344 228.75,267 L228.75,264.2656 Q228.75,262.2813 229.7344,260.8906 Q230.7188,259.4844 232.3594,259.4844 Q233.1094,259.4844 233.75,259.7969 Q234.4063,260.0938 234.875,260.8594 Q235.3438,261.625 235.3438,262.5625 L235.3438,267.0938 Q235.7031,267.2656 235.7031,267.6563 Q235.7031,267.9375 235.5,268.125 Q235.3125,268.2969 234.8438,268.2969 L234.0938,268.2969 L234.0938,268.25 Q233.7031,268.3125 233.5156,268.3125 Q232.5156,268.3125 231.7656,267.5781 Q231.0313,266.8281 231.0313,265.8281 Q231.0313,264.7656 231.8438,263.9688 Q232.6719,263.1719 234.0938,263.0781 Z M234.0938,264.3594 Q233.2031,264.4531 232.7344,264.875 Q232.2813,265.2969 232.2813,265.8438 Q232.2813,266.3281 232.6563,266.6719 Q233.0469,267.0156 233.6875,267.0156 Q233.8125,267.0156 234.0938,267 L234.0938,264.3594 Z " fill="#000000"/><text fill="#000000" font-family="sans-serif" font-size="14" lengthAdjust="spacing" textLength="28" x="252.25" y="271.2285">Test</text><line style="stroke:#181818;stroke-width:0.5;" x1="184" x2="316" y1="281.5" y2="281.5"/><line style="stroke:#181818;stroke-width:0.5;" x1="184" x2="316" y1="289.5" y2="289.5"/><text fill="#000000" font-family="sans-serif" font-size="14" lengthAdjust="spacing" textLength="104" x="189" y="308.0332">void validLogin()</text><text fill="#000000" font-family="sans-serif" font-size="14" lengthAdjust="spacing" textLength="117" x="189" y="325.6426">void inValidLogin()</text><text fill="#000000" font-family="sans-serif" font-size="14" lengthAdjust="spacing" textLength="122" x="189" y="343.252">void unstableTest()</text></g><!--MD5=[41b3e0deefa0fbdaaef97f1db5961522]
class Severity--><g id="elem_Severity"><rect codeLine="31" fill="#F1F1F1" height="65.6094" id="Severity" rx="2.5" ry="2.5" style="stroke:#181818;stroke-width:0.5;" width="116" x="32" y="267"/><ellipse cx="61.85" cy="283" fill="#E3664A" rx="11" ry="11" style="stroke:#181818;stroke-width:1.0;"/><path d="M64.1938,280.5781 L64.1938,280.0625 Q64.1938,279.2344 63.7094,278.7344 Q63.2406,278.2344 62.4906,278.2344 Q61.8969,278.2344 61.3656,278.6406 Q60.8344,279.0313 60.5688,279.6563 Q60.1,280.75 60.1,281.8594 L60.1,284.375 Q60.1,286.2969 60.9594,287.4219 Q61.5219,288.1719 62.5375,288.1719 Q63.0844,288.1719 63.5219,288.0313 Q63.975,287.8906 64.225,287.6406 Q64.475,287.3906 64.6938,287.3906 Q64.9594,287.3906 65.1469,287.5781 Q65.3344,287.7656 65.3344,288.0313 Q65.3344,288.4531 64.7563,288.8438 Q63.9281,289.4063 62.4906,289.4063 Q61.3969,289.4063 60.6781,288.9063 Q59.7563,288.2656 59.3031,287 Q58.85,285.7344 58.85,284.5 L58.85,281.7656 Q58.85,279.7813 59.8344,278.3906 Q60.8188,276.9844 62.4594,276.9844 Q63.2094,276.9844 63.85,277.2969 Q64.5063,277.5938 64.975,278.3594 Q65.4438,279.125 65.4438,280.0625 L65.4438,284.5938 Q65.8031,284.7656 65.8031,285.1563 Q65.8031,285.4375 65.6,285.625 Q65.4125,285.7969 64.9438,285.7969 L64.1938,285.7969 L64.1938,285.75 Q63.8031,285.8125 63.6156,285.8125 Q62.6156,285.8125 61.8656,285.0781 Q61.1313,284.3281 61.1313,283.3281 Q61.1313,282.2656 61.9438,281.4688 Q62.7719,280.6719 64.1938,280.5781 Z M64.1938,281.8594 Q63.3031,281.9531 62.8344,282.375 Q62.3813,282.7969 62.3813,283.3438 Q62.3813,283.8281 62.7563,284.1719 Q63.1469,284.5156 63.7875,284.5156 Q63.9125,284.5156 64.1938,284.5 L64.1938,281.8594 Z " fill="#000000"/><text fill="#000000" font-family="sans-serif" font-size="14" lengthAdjust="spacing" textLength="51" x="79.15" y="288.7285">Severity</text><line style="stroke:#181818;stroke-width:0.5;" x1="33" x2="147" y1="299" y2="299"/><line style="stroke:#181818;stroke-width:0.5;" x1="33" x2="147" y1="307" y2="307"/><text fill="#000000" font-family="sans-serif" font-size="14" lengthAdjust="spacing" textLength="104" x="38" y="325.5332">void validLogin()</text></g><!--MD5=[af7e625d7683394aea459c9348d939cc]
class TestLoginPage--><g id="elem_TestLoginPage"><rect codeLine="21" fill="#F1F1F1" height="65.6094" id="TestLoginPage" rx="2.5" ry="2.5" style="stroke:#181818;stroke-width:0.5;" width="161" x="352.5" y="267"/><ellipse cx="382.35" cy="283" fill="#ADD1B2" rx="11" ry="11" style="stroke:#181818;stroke-width:1.0;"/><path d="M385.1156,278.875 Q385.2719,278.6563 385.4594,278.5469 Q385.6469,278.4375 385.8656,278.4375 Q386.2406,278.4375 386.475,278.7031 Q386.7094,278.9531 386.7094,279.5625 L386.7094,281.0156 Q386.7094,281.625 386.475,281.8906 Q386.2406,282.1563 385.8656,282.1563 Q385.5219,282.1563 385.3188,281.9531 Q385.1156,281.7656 385.0063,281.25 Q384.9594,280.8906 384.7719,280.7031 Q384.4438,280.3281 383.8344,280.1094 Q383.225,279.8906 382.6,279.8906 Q381.8344,279.8906 381.1938,280.2188 Q380.5688,280.5469 380.0688,281.2969 Q379.5844,282.0469 379.5844,283.0781 L379.5844,284.1719 Q379.5844,285.4063 380.475,286.2344 Q381.3656,287.0469 382.9594,287.0469 Q383.8969,287.0469 384.5531,286.7969 Q384.9438,286.6406 385.3656,286.2031 Q385.6313,285.9375 385.7719,285.8594 Q385.9281,285.7813 386.1313,285.7813 Q386.4594,285.7813 386.7094,286.0469 Q386.975,286.2969 386.975,286.6406 Q386.975,286.9844 386.6313,287.3906 Q386.1313,287.9688 385.3344,288.2969 Q384.2563,288.75 382.9594,288.75 Q381.4438,288.75 380.2406,288.125 Q379.2563,287.625 378.5688,286.5625 Q377.8813,285.4844 377.8813,284.2031 L377.8813,283.0469 Q377.8813,281.7188 378.4906,280.5781 Q379.1156,279.4219 380.2094,278.8125 Q381.3031,278.1875 382.5375,278.1875 Q383.2719,278.1875 383.9125,278.3594 Q384.5688,278.5156 385.1156,278.875 Z " fill="#000000"/><text fill="#000000" font-family="sans-serif" font-size="14" lengthAdjust="spacing" textLength="96" x="399.65" y="288.7285">TestLoginPage</text><line style="stroke:#181818;stroke-width:0.5;" x1="353.5" x2="512.5" y1="299" y2="299"/><rect fill="none" height="6" style="stroke:#C82930;stroke-width:1.0;" width="6" x="360.5" y="310.3047"/><text fill="#000000" font-family="sans-serif" font-size="14" lengthAdjust="spacing" textLength="135" x="372.5" y="317.5332">LoginPage loginPage</text><line style="stroke:#181818;stroke-width:0.5;" x1="353.5" x2="512.5" y1="324.6094" y2="324.6094"/></g><!--MD5=[ae336da5efe52b168083e063e86251c2]
class Base--><g id="elem_Base"><rect codeLine="2" fill="#F1F1F1" height="153.6563" id="Base" rx="2.5" ry="2.5" style="stroke:#181818;stroke-width:0.5;" width="229" x="318.5" y="7"/><ellipse cx="412.75" cy="23" fill="#ADD1B2" rx="11" ry="11" style="stroke:#181818;stroke-width:1.0;"/><path d="M415.5156,18.875 Q415.6719,18.6563 415.8594,18.5469 Q416.0469,18.4375 416.2656,18.4375 Q416.6406,18.4375 416.875,18.7031 Q417.1094,18.9531 417.1094,19.5625 L417.1094,21.0156 Q417.1094,21.625 416.875,21.8906 Q416.6406,22.1563 416.2656,22.1563 Q415.9219,22.1563 415.7188,21.9531 Q415.5156,21.7656 415.4063,21.25 Q415.3594,20.8906 415.1719,20.7031 Q414.8438,20.3281 414.2344,20.1094 Q413.625,19.8906 413,19.8906 Q412.2344,19.8906 411.5938,20.2188 Q410.9688,20.5469 410.4688,21.2969 Q409.9844,22.0469 409.9844,23.0781 L409.9844,24.1719 Q409.9844,25.4063 410.875,26.2344 Q411.7656,27.0469 413.3594,27.0469 Q414.2969,27.0469 414.9531,26.7969 Q415.3438,26.6406 415.7656,26.2031 Q416.0313,25.9375 416.1719,25.8594 Q416.3281,25.7813 416.5313,25.7813 Q416.8594,25.7813 417.1094,26.0469 Q417.375,26.2969 417.375,26.6406 Q417.375,26.9844 417.0313,27.3906 Q416.5313,27.9688 415.7344,28.2969 Q414.6563,28.75 413.3594,28.75 Q411.8438,28.75 410.6406,28.125 Q409.6563,27.625 408.9688,26.5625 Q408.2813,25.4844 408.2813,24.2031 L408.2813,23.0469 Q408.2813,21.7188 408.8906,20.5781 Q409.5156,19.4219 410.6094,18.8125 Q411.7031,18.1875 412.9375,18.1875 Q413.6719,18.1875 414.3125,18.3594 Q414.9688,18.5156 415.5156,18.875 Z " fill="#000000"/><text fill="#000000" font-family="sans-serif" font-size="14" lengthAdjust="spacing" textLength="32" x="433.25" y="28.7285">Base</text><line style="stroke:#181818;stroke-width:0.5;" x1="319.5" x2="546.5" y1="39" y2="39"/><ellipse cx="329.5" cy="53.3047" fill="none" rx="3" ry="3" style="stroke:#038048;stroke-width:1.0;"/><text fill="#000000" font-family="sans-serif" font-size="14" lengthAdjust="spacing" text-decoration="underline" textLength="109" x="338.5" y="57.5332">Logger LOGGER</text><ellipse cx="329.5" cy="70.9141" fill="none" rx="3" ry="3" style="stroke:#038048;stroke-width:1.0;"/><text fill="#000000" font-family="sans-serif" font-size="14" lengthAdjust="spacing" text-decoration="underline" textLength="200" x="338.5" y="75.1426">ReportAllureHelper allureHelper</text><polygon fill="none" points="329.5,83.5234,333.5,87.5234,329.5,91.5234,325.5,87.5234" style="stroke:#B38D22;stroke-width:1.0;"/><text fill="#000000" font-family="sans-serif" font-size="14" lengthAdjust="spacing" text-decoration="underline" textLength="203" x="338.5" y="92.752">ThreadLocal&lt;WebDriver&gt; driver</text><ellipse cx="329.5" cy="106.1328" fill="none" rx="3" ry="3" style="stroke:#038048;stroke-width:1.0;"/><text fill="#000000" font-family="sans-serif" font-size="14" lengthAdjust="spacing" textLength="199" x="338.5" y="110.3613">ChromeOptions chromeOptions</text><line style="stroke:#181818;stroke-width:0.5;" x1="319.5" x2="546.5" y1="117.4375" y2="117.4375"/><ellipse cx="329.5" cy="131.7422" fill="#84BE84" rx="3" ry="3" style="stroke:#038048;stroke-width:1.0;"/><text fill="#000000" font-family="sans-serif" font-size="14" lengthAdjust="spacing" textLength="203" x="338.5" y="135.9707">void setup(ITestContext context)</text><ellipse cx="329.5" cy="149.3516" fill="#84BE84" rx="3" ry="3" style="stroke:#038048;stroke-width:1.0;"/><text fill="#000000" font-family="sans-serif" font-size="14" lengthAdjust="spacing" textLength="115" x="338.5" y="153.5801">void sleep(int sec)</text></g><!--MD5=[c4c6d706d5740cd5745d638f463d763b]
class BeforeMethod--><g id="elem_BeforeMethod"><rect codeLine="11" fill="#F1F1F1" height="65.6094" id="BeforeMethod" rx="2.5" ry="2.5" style="stroke:#181818;stroke-width:0.5;" width="215" x="582.5" y="51"/><ellipse cx="641.25" cy="67" fill="#E3664A" rx="11" ry="11" style="stroke:#181818;stroke-width:1.0;"/><path d="M643.5938,64.5781 L643.5938,64.0625 Q643.5938,63.2344 643.1094,62.7344 Q642.6406,62.2344 641.8906,62.2344 Q641.2969,62.2344 640.7656,62.6406 Q640.2344,63.0313 639.9688,63.6563 Q639.5,64.75 639.5,65.8594 L639.5,68.375 Q639.5,70.2969 640.3594,71.4219 Q640.9219,72.1719 641.9375,72.1719 Q642.4844,72.1719 642.9219,72.0313 Q643.375,71.8906 643.625,71.6406 Q643.875,71.3906 644.0938,71.3906 Q644.3594,71.3906 644.5469,71.5781 Q644.7344,71.7656 644.7344,72.0313 Q644.7344,72.4531 644.1563,72.8438 Q643.3281,73.4063 641.8906,73.4063 Q640.7969,73.4063 640.0781,72.9063 Q639.1563,72.2656 638.7031,71 Q638.25,69.7344 638.25,68.5 L638.25,65.7656 Q638.25,63.7813 639.2344,62.3906 Q640.2188,60.9844 641.8594,60.9844 Q642.6094,60.9844 643.25,61.2969 Q643.9063,61.5938 644.375,62.3594 Q644.8438,63.125 644.8438,64.0625 L644.8438,68.5938 Q645.2031,68.7656 645.2031,69.1563 Q645.2031,69.4375 645,69.625 Q644.8125,69.7969 644.3438,69.7969 L643.5938,69.7969 L643.5938,69.75 Q643.2031,69.8125 643.0156,69.8125 Q642.0156,69.8125 641.2656,69.0781 Q640.5313,68.3281 640.5313,67.3281 Q640.5313,66.2656 641.3438,65.4688 Q642.1719,64.6719 643.5938,64.5781 Z M643.5938,65.8594 Q642.7031,65.9531 642.2344,66.375 Q641.7813,66.7969 641.7813,67.3438 Q641.7813,67.8281 642.1563,68.1719 Q642.5469,68.5156 643.1875,68.5156 Q643.3125,68.5156 643.5938,68.5 L643.5938,65.8594 Z " fill="#000000"/><text fill="#000000" font-family="sans-serif" font-size="14" lengthAdjust="spacing" textLength="89" x="661.75" y="72.7285">BeforeMethod</text><line style="stroke:#181818;stroke-width:0.5;" x1="583.5" x2="796.5" y1="83" y2="83"/><line style="stroke:#181818;stroke-width:0.5;" x1="583.5" x2="796.5" y1="91" y2="91"/><text fill="#000000" font-family="sans-serif" font-size="14" lengthAdjust="spacing" textLength="203" x="588.5" y="109.5332">void setup(ITestContext context)</text></g><!--MD5=[bf6fae6336071de6726384941a763dfb]
class AfterMethod--><g id="elem_AfterMethod"><rect codeLine="15" fill="#F1F1F1" height="65.6094" id="AfterMethod" rx="2.5" ry="2.5" style="stroke:#181818;stroke-width:0.5;" width="110" x="833" y="51"/><ellipse cx="848.45" cy="67" fill="#E3664A" rx="11" ry="11" style="stroke:#181818;stroke-width:1.0;"/><path d="M850.7938,64.5781 L850.7938,64.0625 Q850.7938,63.2344 850.3094,62.7344 Q849.8406,62.2344 849.0906,62.2344 Q848.4969,62.2344 847.9656,62.6406 Q847.4344,63.0313 847.1688,63.6563 Q846.7,64.75 846.7,65.8594 L846.7,68.375 Q846.7,70.2969 847.5594,71.4219 Q848.1219,72.1719 849.1375,72.1719 Q849.6844,72.1719 850.1219,72.0313 Q850.575,71.8906 850.825,71.6406 Q851.075,71.3906 851.2938,71.3906 Q851.5594,71.3906 851.7469,71.5781 Q851.9344,71.7656 851.9344,72.0313 Q851.9344,72.4531 851.3563,72.8438 Q850.5281,73.4063 849.0906,73.4063 Q847.9969,73.4063 847.2781,72.9063 Q846.3563,72.2656 845.9031,71 Q845.45,69.7344 845.45,68.5 L845.45,65.7656 Q845.45,63.7813 846.4344,62.3906 Q847.4188,60.9844 849.0594,60.9844 Q849.8094,60.9844 850.45,61.2969 Q851.1063,61.5938 851.575,62.3594 Q852.0438,63.125 852.0438,64.0625 L852.0438,68.5938 Q852.4031,68.7656 852.4031,69.1563 Q852.4031,69.4375 852.2,69.625 Q852.0125,69.7969 851.5438,69.7969 L850.7938,69.7969 L850.7938,69.75 Q850.4031,69.8125 850.2156,69.8125 Q849.2156,69.8125 848.4656,69.0781 Q847.7313,68.3281 847.7313,67.3281 Q847.7313,66.2656 848.5438,65.4688 Q849.3719,64.6719 850.7938,64.5781 Z M850.7938,65.8594 Q849.9031,65.9531 849.4344,66.375 Q848.9813,66.7969 848.9813,67.3438 Q848.9813,67.8281 849.3563,68.1719 Q849.7469,68.5156 850.3875,68.5156 Q850.5125,68.5156 850.7938,68.5 L850.7938,65.8594 Z " fill="#000000"/><text fill="#000000" font-family="sans-serif" font-size="14" lengthAdjust="spacing" textLength="77" x="862.55" y="72.7285">AfterMethod</text><line style="stroke:#181818;stroke-width:0.5;" x1="834" x2="942" y1="83" y2="83"/><line style="stroke:#181818;stroke-width:0.5;" x1="834" x2="942" y1="91" y2="91"/><text fill="#000000" font-family="sans-serif" font-size="14" lengthAdjust="spacing" textLength="98" x="839" y="109.5332">void teardown()</text></g><!--MD5=[285b5178ed2196a17b94641df0e2d559]
reverse link Base to TestLoginPage--><g id="link_Base_TestLoginPage"><path d="M433,181.44 C433,212.1 433,243.93 433,266.73 " fill="none" id="Base-backto-TestLoginPage" style="stroke:#181818;stroke-width:1.0;"/><polygon fill="none" points="426,181.05,433,161.05,440,181.05,426,181.05" style="stroke:#181818;stroke-width:1.0;"/></g><!--MD5=[8af1be8ab24c1a23102ba8fc2413a4be]
@startuml Demo

class Base {
  + {static} Logger LOGGER
  + {static} ReportAllureHelper allureHelper
  # {static} ThreadLocal<WebDriver> driver
  + ChromeOptions chromeOptions

  + void setup(ITestContext context)
  + void sleep(int sec)
}
annotation BeforeMethod {
  void setup(ITestContext context)
}

annotation AfterMethod {
  void teardown()
}

package tests <<Node>> {
  package theInternet <<Node>> {
  class TestLoginPage extends Base {
    - LoginPage loginPage
  }
}
annotation Test {
  void validLogin()
  void inValidLogin()
  void unstableTest()
}

annotation Severity {
  void validLogin()
}

@enduml

PlantUML version 1.2022.7(Mon Aug 22 22:31:30 IST 2022)
(GPL source distribution)
Java Runtime: Java(TM) SE Runtime Environment
JVM: Java HotSpot(TM) 64-Bit Server VM
Default Encoding: UTF-8
Language: en
Country: US
--></g></svg>